<svg width="16" height="16" viewBox="0 0 16 16" fill="none" xmlns="http://www.w3.org/2000/svg">
<rect width="16" height="16" fill="white"/>
<path d="M6.94657 7.52724V7.80734C7.04596 7.83746 7.12427 7.89618 7.18149 7.98353C7.24022 8.07087 7.26958 8.18004 7.26958 8.31106C7.26958 8.41948 7.2485 8.51586 7.20634 8.60019C7.16417 8.68452 7.10168 8.75078 7.01885 8.79896C6.93603 8.84715 6.83589 8.87125 6.71843 8.87125C6.70638 8.87125 6.68078 8.86974 6.64163 8.86673V8.65892L6.70488 8.66343C6.80728 8.66343 6.88709 8.63181 6.94431 8.56856C7.00154 8.50532 7.03015 8.42099 7.03015 8.31557C7.03015 8.2207 7.00681 8.1439 6.96012 8.08517C6.91344 8.02494 6.84794 7.99482 6.76361 7.99482C6.67325 7.99482 6.60473 8.0287 6.55805 8.09647C6.51288 8.16273 6.49029 8.25233 6.49029 8.36527V8.40593H6.29151V8.36527C6.29151 8.25383 6.26967 8.16423 6.226 8.09647C6.18233 8.0287 6.11683 7.99482 6.02949 7.99482C5.94214 7.99482 5.87438 8.02419 5.82619 8.08291C5.778 8.14164 5.75391 8.2192 5.75391 8.31557C5.75391 8.42099 5.78252 8.50532 5.83974 8.56856C5.89697 8.63181 5.97678 8.66343 6.07918 8.66343L6.14243 8.65892V8.86673C6.10327 8.86974 6.07767 8.87125 6.06563 8.87125C5.94817 8.87125 5.84803 8.84715 5.7652 8.79896C5.68238 8.75078 5.61988 8.68452 5.57772 8.60019C5.53555 8.51586 5.51447 8.41948 5.51447 8.31106C5.51447 8.20113 5.5348 8.10701 5.57546 8.0287C5.61763 7.9504 5.67485 7.89091 5.74713 7.85026C5.82092 7.80809 5.9045 7.78701 5.99786 7.78701C6.10478 7.78701 6.18986 7.81637 6.25311 7.8751C6.31786 7.93233 6.36304 8.00461 6.38864 8.09195H6.39542C6.418 8.01666 6.4549 7.9519 6.5061 7.89769C6.55881 7.84348 6.62808 7.80884 6.71391 7.79378V7.52724H5.31344V7.32847H7.46836V7.52724H6.94657ZM8.15104 7.32847V7.52724H7.87546V9H7.63828V7.52724H7.36271V7.32847H7.64506C7.57278 7.21552 7.5133 7.13421 7.46661 7.08451C7.42144 7.03482 7.37701 7.00244 7.33334 6.98738C7.28817 6.97232 7.22718 6.96479 7.15038 6.96479H7.04873V6.77053H7.14586C7.26031 6.77204 7.35066 6.78409 7.41692 6.80668C7.48468 6.82926 7.55245 6.87971 7.62021 6.95802C7.68949 7.03482 7.77306 7.1583 7.87094 7.32847H8.15104ZM9.3409 7.52724V7.96771C9.37403 7.90296 9.42146 7.85176 9.4832 7.81411C9.54645 7.77496 9.6225 7.75538 9.71134 7.75538C9.8032 7.75538 9.88452 7.77797 9.9553 7.82315C10.0261 7.86682 10.081 7.92781 10.1202 8.00611C10.1593 8.08291 10.1789 8.17101 10.1789 8.2704C10.1789 8.37732 10.1586 8.46993 10.1179 8.54823C10.0773 8.62503 10.0216 8.68452 9.95078 8.72668C9.88 8.76734 9.79944 8.78767 9.70909 8.78767C9.65487 8.78767 9.60668 8.7824 9.56452 8.77186V8.58438C9.58711 8.5904 9.61497 8.59341 9.6481 8.59341C9.73243 8.59341 9.8017 8.56555 9.85591 8.50983C9.91163 8.45261 9.93949 8.3743 9.93949 8.27492C9.93949 8.18155 9.91087 8.1055 9.85365 8.04677C9.79793 7.98804 9.72716 7.95868 9.64132 7.95868C9.54193 7.95868 9.46664 7.99181 9.41544 8.05807C9.36574 8.12433 9.3409 8.20339 9.3409 8.29524V9H9.11275V8.58663C9.07812 8.65139 9.02767 8.70334 8.96141 8.74249C8.89515 8.78165 8.81534 8.80122 8.72198 8.80122C8.62861 8.80122 8.54579 8.77939 8.4735 8.73572C8.40122 8.69205 8.34475 8.63106 8.30409 8.55275C8.26494 8.47294 8.24536 8.38033 8.24536 8.27492C8.24536 8.17101 8.26569 8.0799 8.30635 8.0016C8.34701 7.92329 8.40423 7.86306 8.47802 7.82089C8.55181 7.77722 8.63614 7.75538 8.73101 7.75538C8.82136 7.75538 8.89892 7.77421 8.96367 7.81186C9.02842 7.8495 9.07812 7.89995 9.11275 7.9632V7.52724H8.04433V7.32847H10.3777V7.52724H9.3409ZM8.79878 8.60245C8.86654 8.60245 8.92377 8.58663 8.97045 8.55501C9.01864 8.52339 9.05402 8.48273 9.07661 8.43303C9.10071 8.38334 9.11275 8.33214 9.11275 8.27943C9.11275 8.1936 9.08565 8.11906 9.03144 8.05581C8.97722 7.99106 8.89967 7.95868 8.79878 7.95868C8.70993 7.95868 8.63539 7.98804 8.57515 8.04677C8.51492 8.104 8.4848 8.1808 8.4848 8.27717C8.4848 8.37656 8.51416 8.45562 8.57289 8.51435C8.63162 8.57308 8.70692 8.60245 8.79878 8.60245Z" fill="url(#paint0_linear)"/>
<path d="M4.94084 5.60197C5.55951 5.30754 6.08807 6.14017 5.55838 6.57475L4.34539 7.56992C4.0815 7.78642 4.06051 8.18279 4.30006 8.42594L8.50413 12.6933L6.46557 11.1292L4.29557 9.56844L1.86248 8.05699C1.47256 7.81476 1.50485 7.23716 1.91934 7.0399L4.94084 5.60197Z" fill="url(#paint1_linear)"/>
<path d="M10.6981 10.7308C10.0655 10.9939 9.57924 10.1358 10.13 9.72829L11.3913 8.79509C11.6657 8.59207 11.7065 8.19725 11.4794 7.9424L7.49423 3.46994L9.45194 5.13415L11.5411 6.80156L13.8955 8.43291C14.2728 8.69435 14.2116 9.26962 13.7878 9.44588L10.6981 10.7308Z" fill="url(#paint2_linear)"/>
<defs>
<linearGradient id="paint0_linear" x1="4.38927" y1="8.65534" x2="11.8902" y2="7.28639" gradientUnits="userSpaceOnUse">
<stop offset="0.0597401" stop-color="#090B35"/>
<stop offset="0.508333" stop-color="#EB5757"/>
<stop offset="0.785867" stop-color="#090B35" stop-opacity="0.99"/>
</linearGradient>
<linearGradient id="paint1_linear" x1="3.95617" y1="3.71291" x2="3.01499" y2="10.858" gradientUnits="userSpaceOnUse">
<stop stop-color="#EB5757"/>
<stop offset="1" stop-color="#090B35" stop-opacity="0.99"/>
</linearGradient>
<linearGradient id="paint2_linear" x1="8.37186" y1="11.0307" x2="11.3209" y2="0.999339" gradientUnits="userSpaceOnUse">
<stop stop-color="#090B35" stop-opacity="0.9"/>
<stop offset="1" stop-color="#EB5757"/>
</linearGradient>
</defs>
</svg>
